<?xml version="1.0" encoding="utf-8"?>
<!-- Generator: Adobe Illustrator 24.1.0, SVG Export Plug-In . SVG Version: 6.00 Build 0)  -->
<svg version="1.0" id="Livello_1" xmlns="http://www.w3.org/2000/svg" xmlns:xlink="http://www.w3.org/1999/xlink" x="0px" y="0px"
	 viewBox="0 0 841.89 595.28" style="enable-background:new 0 0 841.89 595.28;" xml:space="preserve">
<style type="text/css">
	.st0{fill:#F4971C;}
	.st1{fill:#FFFFFF;}
	.st2{clip-path:url(#SVGID_2_);}
	.st3{opacity:0.25;clip-path:url(#SVGID_2_);}
	.st4{clip-path:url(#SVGID_4_);}
	.st5{clip-path:url(#SVGID_6_);}
	.st6{clip-path:url(#SVGID_8_);}
	.st7{opacity:0.25;clip-path:url(#SVGID_8_);}
	.st8{fill:#FFCF02;}
	.st9{fill:#2EA836;}
	.st10{fill:#05A7DC;}
	.st11{fill:#813A3F;}
</style>
<g>
	<g>
		<path class="st0" d="M590.9,204.17c-14.73-3.95-29.87,4.79-33.82,19.52l-14.29,53.34c-3.95,14.73,4.79,29.87,19.52,33.82
			c14.73,3.95,29.87-4.79,33.82-19.52l14.29-53.34C614.37,223.26,605.63,208.12,590.9,204.17z M589.94,261.09l-26.72,35.72
			l10.72-40.01l-10.67-2.86l26.72-35.72l-10.72,40.01L589.94,261.09z"/>
		<rect x="369.52" y="202.29" class="st0" width="27.61" height="110.45"/>
		<polygon class="st0" points="438.55,285.12 438.55,202.29 410.93,202.29 410.93,312.74 438.55,312.74 466.16,312.74 
			466.16,285.12 		"/>
		<polygon class="st0" points="507.57,285.12 507.57,202.29 479.96,202.29 479.96,312.74 507.57,312.74 535.19,312.74 
			535.19,285.12 		"/>
		<polygon class="st0" points="645.63,285.12 645.63,202.29 618.02,202.29 618.02,312.74 645.63,312.74 673.24,312.74 
			673.24,285.12 		"/>
		<polygon class="st0" points="742.27,229.9 742.27,202.29 714.66,202.29 687.05,202.29 687.05,312.74 714.66,312.74 742.27,312.74 
			742.27,285.12 714.66,285.12 714.66,271.32 742.27,271.32 742.27,243.71 714.66,243.71 714.66,229.9 		"/>
		<path class="st0" d="M328.1,202.29h-27.61v110.45h27.61v-41.42c15.25,0,27.61-15.45,27.61-34.51
			C355.71,217.74,343.35,202.29,328.1,202.29z"/>
		<g>
			<path class="st0" d="M304.32,407.82c-1.14,0-2.07-0.29-2.78-0.86c-0.71-0.57-1.06-1.26-1.06-2.07v-67.91
				c0-0.81,0.35-1.5,1.06-2.07c0.71-0.57,1.63-0.86,2.78-0.86h17.86c4.1,0,7.8,0.72,11.1,2.17c3.3,1.45,5.9,3.77,7.82,6.96
				c1.92,3.2,2.88,7.48,2.88,12.87v29.77c0,5.38-0.96,9.67-2.88,12.87c-1.92,3.2-4.52,5.52-7.82,6.96c-3.3,1.45-7,2.17-11.1,2.17
				H304.32z M308.97,400.15h13.22c4.17,0,7.43-1.16,9.79-3.48c2.35-2.32,3.53-5.94,3.53-10.85v-29.77c0-4.91-1.18-8.53-3.53-10.85
				c-2.36-2.32-5.62-3.48-9.79-3.48h-13.22V400.15z"/>
			<path class="st0" d="M361.84,407.82c-1.01,0-1.97-0.25-2.88-0.76c-0.91-0.5-1.36-1.26-1.36-2.27v-67.81
				c0-1.01,0.45-1.75,1.36-2.22c0.91-0.47,1.87-0.71,2.88-0.71c1.07,0,2.05,0.24,2.93,0.71c0.87,0.47,1.31,1.21,1.31,2.22v67.81
				c0,1.01-0.44,1.77-1.31,2.27C363.9,407.56,362.92,407.82,361.84,407.82z"/>
			<path class="st0" d="M404.53,407.82c-0.94,0-1.82-0.25-2.62-0.76c-0.81-0.5-1.21-1.26-1.21-2.27v-67.71
				c0-1.01,0.4-1.77,1.21-2.27c0.81-0.5,1.68-0.76,2.62-0.76h35.93c1.07,0,1.83,0.4,2.27,1.21c0.44,0.81,0.66,1.65,0.66,2.52
				c0,1.01-0.25,1.92-0.76,2.72c-0.51,0.81-1.23,1.21-2.17,1.21h-31.28v25.63h15.74c0.94,0,1.67,0.37,2.17,1.11
				c0.5,0.74,0.76,1.58,0.76,2.52c0,0.81-0.22,1.58-0.66,2.32c-0.44,0.74-1.19,1.11-2.27,1.11h-15.74v25.73h31.28
				c0.94,0,1.66,0.39,2.17,1.16c0.5,0.77,0.76,1.7,0.76,2.78c0,0.88-0.22,1.71-0.66,2.52c-0.44,0.81-1.2,1.21-2.27,1.21H404.53z"/>
			<path class="st0" d="M456.8,407.82c-1.01,0-1.97-0.25-2.88-0.76c-0.91-0.5-1.36-1.26-1.36-2.27v-67.81
				c0-1.08,0.45-1.83,1.36-2.27c0.91-0.44,1.87-0.66,2.88-0.66c1.07,0,1.98,0.2,2.72,0.61c0.74,0.4,1.41,0.99,2.02,1.77
				c0.61,0.78,1.21,1.77,1.82,2.98l25.03,49.14v-51.57c0-1.01,0.45-1.75,1.36-2.22c0.91-0.47,1.87-0.71,2.88-0.71
				c1.08,0,2.05,0.24,2.93,0.71c0.87,0.47,1.31,1.21,1.31,2.22v67.81c0,1.01-0.44,1.77-1.31,2.27c-0.88,0.5-1.85,0.76-2.93,0.76
				c-1.08,0-2.07-0.37-2.98-1.11c-0.91-0.74-1.66-1.65-2.27-2.72l-26.34-50.76v51.57c0,1.01-0.44,1.77-1.31,2.27
				C458.85,407.56,457.87,407.82,456.8,407.82z"/>
			<path class="st0" d="M515.13,407.82c-0.94,0-1.82-0.25-2.62-0.76c-0.81-0.5-1.21-1.26-1.21-2.27v-67.71
				c0-1.01,0.4-1.77,1.21-2.27c0.81-0.5,1.68-0.76,2.62-0.76h35.93c1.07,0,1.83,0.4,2.27,1.21c0.44,0.81,0.66,1.65,0.66,2.52
				c0,1.01-0.25,1.92-0.76,2.72c-0.51,0.81-1.23,1.21-2.17,1.21h-31.28v25.63h15.74c0.94,0,1.67,0.37,2.17,1.11
				c0.5,0.74,0.76,1.58,0.76,2.52c0,0.81-0.22,1.58-0.66,2.32c-0.44,0.74-1.19,1.11-2.27,1.11h-15.74v25.73h31.28
				c0.94,0,1.66,0.39,2.17,1.16c0.5,0.77,0.76,1.7,0.76,2.78c0,0.88-0.22,1.71-0.66,2.52c-0.44,0.81-1.2,1.21-2.27,1.21H515.13z"/>
			<path class="st0" d="M602.31,408.02c-0.81,0-1.53-0.34-2.17-1.01c-0.64-0.67-1.2-1.45-1.67-2.32l-15.14-29.57h-11.71v29.67
				c0,1.01-0.44,1.77-1.31,2.27c-0.87,0.5-1.85,0.76-2.93,0.76c-1.01,0-1.97-0.25-2.88-0.76c-0.91-0.5-1.36-1.26-1.36-2.27v-67.81
				c0-0.81,0.29-1.48,0.86-2.02c0.57-0.54,1.3-0.84,2.17-0.91h18.47c4.1,0,7.85,0.62,11.25,1.87c3.39,1.24,6.1,3.33,8.12,6.26
				c2.02,2.93,3.03,6.95,3.03,12.06c0,4.1-0.66,7.5-1.97,10.19c-1.31,2.69-3.11,4.79-5.4,6.31c-2.29,1.51-4.85,2.57-7.67,3.18
				l14.93,28.36c0.13,0.27,0.23,0.52,0.3,0.76c0.07,0.24,0.1,0.45,0.1,0.66c0,0.74-0.25,1.45-0.76,2.12
				c-0.5,0.67-1.14,1.21-1.92,1.61C603.91,407.82,603.12,408.02,602.31,408.02z M571.63,368.06h13.02c4.17,0,7.53-1.01,10.09-3.03
				c2.56-2.02,3.84-5.41,3.84-10.19c0-4.78-1.28-8.16-3.84-10.14c-2.56-1.98-5.92-2.98-10.09-2.98h-13.02V368.06z"/>
			<path class="st0" d="M638.54,408.42c-4.1,0-7.79-0.72-11.05-2.17c-3.26-1.45-5.85-3.78-7.77-7.01c-1.92-3.23-2.88-7.5-2.88-12.82
				v-30.38c0-5.31,0.96-9.59,2.88-12.82c1.92-3.23,4.51-5.56,7.77-7.01c3.26-1.45,6.88-2.17,10.85-2.17c4.44,0,8.29,0.76,11.55,2.27
				c3.26,1.51,5.82,3.62,7.67,6.31c1.85,2.69,2.78,5.85,2.78,9.49c0,1.61-0.37,2.71-1.11,3.28c-0.74,0.57-1.78,0.86-3.13,0.86
				c-1.14,0-2.12-0.22-2.93-0.66c-0.81-0.44-1.25-1.19-1.31-2.27c-0.27-2.35-0.88-4.39-1.82-6.1c-0.94-1.71-2.36-3.06-4.24-4.04
				c-1.88-0.98-4.3-1.46-7.26-1.46c-4.17,0-7.42,1.16-9.74,3.48c-2.32,2.32-3.48,5.94-3.48,10.85v30.38c0,4.91,1.16,8.53,3.48,10.85
				c2.32,2.32,5.57,3.48,9.74,3.48c4.17,0,7.43-1.16,9.79-3.48c2.36-2.32,3.53-5.94,3.53-10.85v-10.29h-12.01
				c-0.94,0-1.66-0.37-2.17-1.11c-0.51-0.74-0.76-1.55-0.76-2.42c0-0.87,0.25-1.68,0.76-2.42c0.5-0.74,1.23-1.11,2.17-1.11h17.56
				c0.94,0,1.67,0.3,2.17,0.91c0.5,0.61,0.76,1.35,0.76,2.22v14.23c0,5.31-0.96,9.59-2.88,12.82c-1.92,3.23-4.52,5.57-7.82,7.01
				S642.64,408.42,638.54,408.42z"/>
			<path class="st0" d="M677.09,407.82c-1.01,0-1.97-0.25-2.88-0.76c-0.91-0.5-1.36-1.26-1.36-2.27v-67.81
				c0-1.01,0.45-1.75,1.36-2.22c0.91-0.47,1.87-0.71,2.88-0.71c1.07,0,2.05,0.24,2.93,0.71c0.87,0.47,1.31,1.21,1.31,2.22v67.81
				c0,1.01-0.44,1.77-1.31,2.27C679.14,407.56,678.16,407.82,677.09,407.82z"/>
			<path class="st0" d="M695.35,407.82c-0.67,0-1.43-0.15-2.27-0.45c-0.84-0.3-1.51-0.72-2.02-1.26c-0.5-0.54-0.76-1.14-0.76-1.82
				c0-0.27,0.03-0.54,0.1-0.81l20.69-67.11c0.27-1.01,0.91-1.75,1.92-2.22c1.01-0.47,2.09-0.71,3.23-0.71
				c1.21,0,2.32,0.25,3.33,0.76c1.01,0.5,1.65,1.23,1.92,2.17l20.59,67.11c0.13,0.27,0.2,0.5,0.2,0.71c0,0.67-0.29,1.28-0.86,1.82
				c-0.57,0.54-1.26,0.98-2.07,1.31c-0.81,0.34-1.58,0.5-2.32,0.5c-0.74,0-1.38-0.15-1.92-0.45c-0.54-0.3-0.91-0.79-1.11-1.46
				l-4.54-15.04h-26.54l-4.34,15.04c-0.2,0.67-0.59,1.16-1.16,1.46C696.85,407.66,696.16,407.82,695.35,407.82z M704.93,383.9h22.6
				l-11.3-37.94L704.93,383.9z"/>
		</g>
	</g>
	<path class="st0" d="M218.95,167.89c-35.83-9.6-72.66,11.66-82.26,47.49l-34.77,129.75c-9.6,35.83,11.66,72.66,47.49,82.26
		c35.83,9.6,72.66-11.66,82.26-47.49l34.77-129.75C276.04,214.32,254.77,177.49,218.95,167.89z M216.62,306.33l-65,86.88
		l26.07-97.31l-25.95-6.95l65-86.88l-26.07,97.31L216.62,306.33z"/>
</g>
</svg>
