<svg id="Layer_1" data-name="Layer 1" xmlns="http://www.w3.org/2000/svg" viewBox="0 0 979.23 274.61"><defs><style>.cls-1{font-size:127.12px;font-family:Bebas Neue;letter-spacing:6px;}.cls-1,.cls-5{fill:#f78411;}.cls-2{letter-spacing:4px;}.cls-3{letter-spacing:1px;}.cls-4{fill:#414042;}</style></defs><title>myguitarsongs3</title><text class="cls-1" transform="translate(262.53 207.72)">m<tspan class="cls-2" x="75.13" y="0">y</tspan><tspan x="129.91" y="0">gui</tspan><tspan class="cls-3" x="273.3" y="0">t</tspan><tspan x="320.08" y="0">ar</tspan><tspan class="cls-4" x="435.63" y="0">songs</tspan></text><path class="cls-4" d="M135.18,81A105.68,105.68,0,0,0,52.37,269.72c-8.77-9.22-9.78-23-2-35.7a64.82,64.82,0,0,1,9.67-12.08,52.23,52.23,0,0,0,15.38-29.87c0.1-.64.23-1.28,0.32-1.92,2.36-16.53,12.7-23.18,28.86-18.55,1.23,0.35,2.43.79,4.09,1.34,1-2.58,2.08-4.89,2.9-7.28q11.88-34.72,23.66-69.48C136.94,91.18,137.3,86.08,135.18,81Z" transform="translate(-9.53 -15.84)"/><path class="cls-5" d="M220.46,175.23a105.64,105.64,0,0,0-62.93-87.31,37.12,37.12,0,0,0-4.41,4.24c-2,2.45-4.32,5-5.26,7.87-6.76,20.71-13.21,41.52-19.76,62.3-1.28,4.08-2.46,8.2-3.89,12.22-0.84,2.36-.23,3.24,2.07,4.29,4.08,1.85,8.31,3.85,11.66,6.73,7,6,7.93,15,2.7,24.13A55.55,55.55,0,0,0,134,248.63c1.61,8.78.84,17.62-3.32,25.79-5.57,10.92-15,15.78-26.81,15a96.28,96.28,0,0,1-11.77-1.52A105.73,105.73,0,0,0,220.46,175.23Z" transform="translate(-9.53 -15.84)"/><circle class="cls-5" cx="99.41" cy="225.59" r="16.26" transform="translate(-29.5 -5.94) rotate(-5.18)"/><path class="cls-5" d="M251.35,143.51s-4.49-39.76-54.85-92.79a185.1,185.1,0,0,1-22.37-34.88L161.15,57l-6.09,19c3.76,1.21,59.23,19.34,76.07,89.63,0,0,11.48,64.38-44.36,107.33C186.77,273,261,232.43,251.35,143.51Z" transform="translate(-9.53 -15.84)"/></svg>